<?xml version="1.0" standalone="no"?>
<!DOCTYPE svg PUBLIC "-//W3C//DTD SVG 20010904//EN"
 "https://www.w3.org/TR/2001/REC-SVG-20010904/DTD/svg10.dtd">
<svg version="1.0" xmlns="https://www.w3.org/2000/svg"
 width="16.000000pt" height="16.000000pt" viewBox="0 0 16.000000 16.000000"
 preserveAspectRatio="xMidYMid meet">
<metadata>
Created by potrace 1.11, written by Peter Selinger 2001-2013
</metadata>
<g transform="translate(0.000000,16.000000) scale(0.003200,-0.003200)"
fill="#000000" stroke="none">
<path d="M2368 4835 c-2 -1 -43 -5 -93 -9 -836 -61 -1626 -599 -2010 -1369
-95 -191 -185 -445 -211 -597 -3 -14 -11 -63 -19 -110 -27 -152 -33 -241 -29
-455 3 -207 5 -230 25 -350 5 -33 12 -72 14 -87 14 -94 73 -298 127 -438 68
-175 218 -448 314 -569 153 -195 274 -319 340 -350 253 -119 531 69 511 344
-7 95 -41 162 -128 255 -174 186 -311 406 -390 630 -34 97 -67 213 -75 268 -3
20 -7 42 -9 49 -25 75 -25 446 0 573 3 14 9 48 15 75 15 79 17 86 41 165 144
475 495 879 952 1095 279 132 606 190 924 161 770 -68 1425 -650 1583 -1406
10 -52 22 -118 26 -145 10 -84 12 -356 2 -435 -47 -389 -214 -742 -487 -1030
-79 -84 -121 -167 -127 -251 -4 -70 15 -162 43 -207 107 -167 291 -222 470
-141 83 37 263 237 402 444 167 250 287 523 355 805 24 103 28 125 42 225 3
28 8 59 11 70 13 49 11 485 -2 585 -14 110 -23 165 -30 190 -2 8 -7 31 -10 50
-3 19 -8 43 -11 52 -3 9 -7 25 -9 35 -37 179 -161 473 -287 681 -130 216 -376
495 -573 652 -354 281 -788 467 -1222 524 -24 3 -62 9 -85 12 -42 6 -384 14
-390 9z"/>
<path d="M2388 4005 c-2 -1 -32 -5 -68 -9 -36 -3 -75 -8 -86 -10 -12 -2 -37
-7 -55 -10 -195 -32 -476 -153 -650 -281 -124 -91 -269 -230 -344 -330 -96
-128 -139 -198 -200 -328 -50 -104 -107 -283 -125 -392 -7 -38 -16 -89 -20
-112 -8 -46 -5 -366 4 -423 61 -373 206 -673 446 -923 113 -117 278 -249 375
-299 147 -75 203 -101 276 -126 101 -35 233 -68 308 -77 30 -4 63 -9 75 -11
33 -7 305 -6 361 1 44 5 76 11 185 31 151 28 380 125 540 228 356 231 638 632
716 1016 3 14 9 41 14 60 24 98 35 427 17 549 -37 258 -125 490 -267 702 -111
167 -225 287 -385 410 -132 101 -327 203 -486 254 -84 27 -99 31 -153 41 -16
2 -32 7 -36 9 -25 15 -427 43 -442 30z m222 -719 c130 -11 327 -84 436 -162
272 -195 416 -481 409 -809 -2 -66 -6 -130 -9 -142 -3 -13 -8 -33 -11 -44 -62
-286 -266 -537 -537 -663 -126 -59 -243 -83 -400 -83 -403 -1 -757 248 -898
631 -47 126 -68 332 -47 463 58 371 324 674 682 778 47 13 113 27 148 31 34 3
63 7 64 8 3 2 84 -2 163 -8z"/>
</g>
</svg>
